<?xml version="1.0" encoding="utf-8"?>
<!-- Generator: Adobe Illustrator 25.0.1, SVG Export Plug-In . SVG Version: 6.00 Build 0)  -->
<svg version="1.1" id="Layer_1" xmlns="http://www.w3.org/2000/svg" xmlns:xlink="http://www.w3.org/1999/xlink" x="0px" y="0px"
	 viewBox="0 0 500 120" style="enable-background:new 0 0 500 120;" xml:space="preserve">
<style type="text/css">
	.st0{fill:#FFFFFF;}
	.st1{fill:url(#SVGID_1_);}
	.st2{fill:url(#SVGID_2_);}
	.st3{fill:url(#SVGID_3_);}
	.st4{fill:url(#SVGID_4_);}
</style>
<g>
	<path class="st0" d="M123.1,89.1l-9.5-34.9l-4.7-0.4V48h18.6v5.8l-4.6,0.6l4.5,18.4l0.6,2.7h0.2l0.7-2.7L137,48h6.8l8.5,26l0.6,1.8
		h0.2l0.5-1.8l4.8-19.5l-4.7-0.6v-5.8h18.2v5.8l-4.4,0.4l-9.9,34.9h-8.8l-7.1-21.3l-0.9-2.9h-0.2l-1.1,3.1l-7.2,21.1h-9.2
		L123.1,89.1L123.1,89.1z"/>
	<path class="st0" d="M174.1,89.1v-5.8l3.6-0.9V65.2l-4.2-0.9v-5.8H187l0.2,3.7l0.1,0.8c0.7-1.7,1.5-3,2.5-3.8s2.3-1.2,3.8-1.2
		c0.4,0,0.9,0,1.5,0.1s1.1,0.2,1.7,0.4l-1,9.1l-4.2-0.2c-1,0-1.7,0.1-2.3,0.3c-0.6,0.3-1.1,0.7-1.7,1.3v13.5l3.6,0.9v5.8L174.1,89.1
		L174.1,89.1z"/>
	<path class="st0" d="M199,89.1v-5.8l3.6-0.9V65.2l-4.3-0.9v-5.8h14.2v23.9l3.6,0.9v5.8C216.1,89.1,199,89.1,199,89.1z M202.3,52.7
		V45h10.2v7.7H202.3z"/>
	<path class="st0" d="M230.9,89.7c-3.2,0-5.6-0.9-7.3-2.6c-1.7-1.7-2.5-4.4-2.5-8.1V65.3h-3.8v-6.8h3.8V51h9.9v7.5h5v6.8h-5V79
		c0,1,0.2,1.7,0.7,2.1s1.1,0.6,1.9,0.6c0.3,0,0.7,0,1-0.1c0.3,0,0.7-0.1,1-0.1l0.7,7.4c-0.9,0.2-1.7,0.4-2.6,0.6
		C232.7,89.6,231.8,89.7,230.9,89.7z"/>
	<path class="st0" d="M251.7,89.7c-3.2,0-5.6-0.9-7.3-2.6c-1.7-1.7-2.5-4.4-2.5-8.1V65.3h-3.8v-6.8h3.8V51h9.9v7.5h5v6.8h-5V79
		c0,1,0.2,1.7,0.7,2.1s1.1,0.6,1.9,0.6c0.3,0,0.7,0,1-0.1c0.3,0,0.7-0.1,1-0.1l0.7,7.4c-0.9,0.2-1.7,0.4-2.6,0.6
		C253.6,89.6,252.7,89.7,251.7,89.7z"/>
	<path class="st0" d="M274.1,89.6c-3,0-5.6-0.6-7.8-1.9c-2.2-1.3-4-3.1-5.2-5.3s-1.9-4.8-1.9-7.6v-1c0-3.1,0.5-5.9,1.6-8.2
		c1.1-2.4,2.7-4.3,4.8-5.6c2.1-1.3,4.7-2,7.8-2c2.8,0,5.1,0.5,7,1.6s3.4,2.6,4.4,4.7c1,2.1,1.5,4.6,1.5,7.6V77h-16.8v0.2
		c0.2,1,0.5,1.8,1,2.6c0.5,0.7,1.2,1.3,2.1,1.8c0.9,0.4,2,0.6,3.3,0.6s2.5-0.1,3.8-0.4c1.2-0.3,2.5-0.8,3.9-1.4l2.3,6
		c-1.4,1-3.1,1.8-5,2.4C278.7,89.3,276.5,89.6,274.1,89.6z M269.5,70.8h7.8v-0.7c0-1.1-0.1-2-0.3-2.7c-0.2-0.7-0.6-1.3-1.1-1.7
		s-1.3-0.6-2.2-0.6c-1,0-1.8,0.2-2.4,0.7s-1,1.1-1.3,2c-0.3,0.8-0.5,1.8-0.6,2.9L269.5,70.8z"/>
	<path class="st0" d="M289.3,89.1v-5.8l3.6-0.9V65.2l-4.2-0.9v-5.8h13.6l0.3,4.3c1-1.5,2.3-2.7,3.7-3.6c1.5-0.8,3.2-1.3,5-1.3
		c2.9,0,5.1,1,6.8,2.9c1.7,1.9,2.5,5,2.5,9.2v12.3l3.6,0.9V89h-16.4v-5.8l2.9-0.9V70c0-1.6-0.3-2.8-1-3.5s-1.6-1-2.8-1
		c-0.9,0-1.7,0.2-2.4,0.5s-1.2,0.8-1.7,1.5v14.9l2.5,0.9v5.8C305.3,89.1,289.3,89.1,289.3,89.1z"/>
	<path class="st0" d="M325.5,89.1v-5.8l3.6-0.9V51.7l-4.3-0.9V45H339v37.4l3.6,0.9v5.8C342.6,89.1,325.5,89.1,325.5,89.1z"/>
	<path class="st0" d="M354.2,106.5c-0.9,0-1.7-0.1-2.6-0.2c-0.9-0.1-1.8-0.3-2.7-0.6l1.2-7.1c0.4,0.1,0.7,0.2,1.1,0.2
		c0.3,0,0.7,0.1,1.1,0.1c1.2,0,2.3-0.2,3.2-0.7c0.9-0.4,1.5-1.1,1.8-2l0.3-1.1l-9.8-30.2l-4.1-0.6v-5.8h18.4v5.8l-3.8,0.6l4.1,17.5
		l0.1,0.2h0.2l4.8-17.8l-3.5-0.5v-5.8h16.7v5.8l-3.6,0.5l-11.4,33.8c-0.5,1.4-1.3,2.7-2.2,3.9c-0.9,1.2-2.1,2.2-3.6,2.9
		C358.1,106.1,356.3,106.5,354.2,106.5z"/>
	<path class="st0" d="M382,89.1v-5.8l4.3-0.9V54.6l-4.3-0.9v-5.8h18.4v5.8l-4.3,0.9V65h15V54.6l-4.3-0.9v-5.8h4.3h9.9h4.3v5.8
		l-4.3,0.9v27.7l4.3,0.9V89h-18.4v-5.8l4.3-0.9v-9.7h-15v9.7l4.3,0.9V89L382,89.1L382,89.1z"/>
	<path class="st0" d="M440.7,89.6c-3.2,0-5.6-1-7.5-3c-1.8-2-2.7-5.1-2.7-9.3V65.2l-3.3-0.9v-5.8h3.3h9.9v19c0,1.5,0.3,2.7,0.9,3.4
		c0.6,0.8,1.6,1.2,2.8,1.2c0.7,0,1.5-0.1,2.2-0.4s1.4-0.7,1.9-1.2V65.2l-3.3-0.9v-5.8h3.3h9.9v23.9l3.8,0.9v5.8h-12.4l-0.6-3.5
		c-1,1.3-2.2,2.3-3.6,3C444,89.3,442.5,89.6,440.7,89.6z"/>
	<path class="st0" d="M483.5,89.6c-1.8,0-3.4-0.4-4.6-1.1c-1.3-0.7-2.3-1.8-3.2-3.1l-0.6,3.6h-8.6V51.7l-4.2-0.9V45h14.1v16.5
		c0.8-1.1,1.9-2,3.1-2.7c1.2-0.6,2.6-0.9,4.2-0.9c2.4,0,4.5,0.6,6.2,1.9c1.7,1.3,3,3.1,3.8,5.5c0.9,2.4,1.3,5.2,1.3,8.4v0.6
		c0,3.1-0.4,5.8-1.3,8.1s-2.2,4.1-3.9,5.3C488.1,89,486,89.6,483.5,89.6z M480.3,82c1.8,0,3-0.6,3.7-1.9s1.1-3.2,1.1-5.7v-0.6
		c0-1.8-0.2-3.3-0.5-4.5c-0.3-1.2-0.8-2.2-1.5-2.8s-1.6-1-2.7-1c-0.9,0-1.7,0.2-2.4,0.6c-0.7,0.4-1.3,1-1.7,1.8v12.3
		c0.5,0.6,1.1,1.1,1.7,1.4C478.8,81.9,479.5,82,480.3,82z"/>
</g>
<g>
	<rect x="382" y="100.9" class="st0" width="113" height="2.1"/>
</g>
<g>
	<path class="st0" d="M171.7,105.9l-2.6-10.1l-0.9-0.1v-1h3.6v1l-1.2,0.1l1.4,6.2l0.4,1.4l0,0l0.4-1.4l2.2-7.4h1.3l2.3,7.4l0.4,1.6
		l0,0l0.4-1.6l1.4-6.2l-1.3-0.1v-1h3.6v1l-0.9,0.1l-2.5,10.1h-1.4l-2.5-7.8l-0.3-1.2l0,0l-0.3,1.2l-2.5,7.8
		C172.7,105.9,171.7,105.9,171.7,105.9z"/>
	<path class="st0" d="M184.6,105.9v-1l1.3-0.3v-6l-1.3-0.3v-1h2.6l0.1,1v0.1c0.3-0.4,0.5-0.8,0.9-1c0.4-0.3,0.8-0.4,1.2-0.4
		c0.1,0,0.3,0,0.5,0c0.1,0,0.3,0,0.4,0.1l-0.3,1.4h-1c-0.4,0-0.8,0.1-1,0.3c-0.3,0.3-0.5,0.5-0.6,0.8v4.8l1.3,0.3v1h-4L184.6,105.9
		L184.6,105.9z"/>
	<path class="st0" d="M191.3,105.9v-1l1.3-0.3v-6l-1.3-0.3v-1h2.7v7.1l1.3,0.3v1h-4V105.9z M192.5,95.4v-1.7h1.6v1.7H192.5z"/>
	<path class="st0" d="M199.5,106.1c-0.6,0-1.2-0.1-1.4-0.5c-0.4-0.4-0.5-0.9-0.5-1.7v-5.1h-1.3v-1.2h1.3v-2.1h1.6v2.1h1.8v1.2h-1.8
		v5.1c0,0.4,0.1,0.6,0.3,0.9c0.1,0.1,0.4,0.3,0.6,0.3c0.1,0,0.4,0,0.6,0c0.3,0,0.4,0,0.5-0.1l0.3,1c-0.3,0.1-0.5,0.1-0.8,0.1
		C200.1,105.9,199.7,106.1,199.5,106.1z"/>
	<path class="st0" d="M202.3,105.9v-1l1.3-0.3v-6l-1.3-0.3v-1h2.7v7.1l1.3,0.3v1h-4V105.9z M203.5,95.4v-1.7h1.6v1.7H203.5z"/>
	<path class="st0" d="M207.5,105.9v-1l1.3-0.3v-6l-1.3-0.3v-1h2.6l0.1,1.3c0.3-0.4,0.6-0.8,1-1c0.4-0.3,0.9-0.4,1.4-0.4
		c0.9,0,1.6,0.3,2.1,0.8s0.8,1.3,0.8,2.5v4.2l1.3,0.3v1h-4v-1l1.3-0.3v-4c0-0.8-0.1-1.3-0.4-1.6c-0.3-0.3-0.8-0.5-1.3-0.5
		c-0.4,0-0.8,0.1-1.2,0.3c-0.4,0.3-0.6,0.5-0.8,0.9v4.9l1.3,0.3v1C211.8,105.9,207.5,105.9,207.5,105.9z"/>
	<path class="st0" d="M221.7,109.3c-0.4,0-0.8,0-1.3-0.1c-0.5-0.1-0.9-0.3-1.3-0.4l0.4-1.2c0.3,0.1,0.6,0.3,1,0.4s0.8,0.1,1.2,0.1
		c0.6,0,1.2-0.1,1.6-0.5c0.3-0.4,0.5-0.9,0.5-1.7v-0.8c-0.3,0.4-0.6,0.6-1,0.8c-0.4,0.2-0.8,0.3-1.3,0.3c-0.6,0-1.3-0.1-1.8-0.5
		c-0.5-0.4-0.9-0.8-1.2-1.4c-0.3-0.6-0.4-1.3-0.4-2.1V102c0-0.9,0.1-1.7,0.4-2.3c0.3-0.6,0.6-1.2,1.2-1.6c0.5-0.4,1-0.5,1.8-0.5
		c0.5,0,1,0.1,1.4,0.3c0.4,0.3,0.8,0.5,1,0.9l0.1-1h1.3v8.3c0,0.8-0.1,1.3-0.4,1.8c-0.3,0.5-0.6,0.9-1.2,1.2
		C223.1,109,222.4,109.3,221.7,109.3z M221.8,104.8c0.5,0,0.8-0.1,1.2-0.3c0.3-0.3,0.5-0.5,0.8-0.9v-3.9c-0.3-0.4-0.4-0.6-0.8-0.9
		c-0.3-0.3-0.6-0.3-1.2-0.3c-0.5,0-0.9,0.1-1.2,0.4s-0.5,0.6-0.8,1.2c-0.1,0.5-0.3,1-0.3,1.7v0.1c0,0.8,0.1,1.6,0.5,2.1
		C220.5,104.5,221,104.8,221.8,104.8z M224.9,98.8l-0.6-1.3h1.8v1L224.9,98.8z"/>
	<path class="st0" d="M234,105.9v-1l1.3-0.3v-9h-2.6l-0.3,1.6h-1v-2.7h9.3v2.7h-1.2l-0.3-1.6h-2.6v9l1.3,0.3v1
		C237.9,105.9,234,105.9,234,105.9z"/>
	<path class="st0" d="M242,105.9v-1l1.3-0.3v-9.7l-1.3-0.3v-1h2.7v4.8c0.3-0.4,0.6-0.6,1-0.9c0.4-0.3,0.9-0.4,1.4-0.4
		c0.9,0,1.6,0.3,2.1,0.8s0.8,1.3,0.8,2.5v4l1.3,0.3v1h-4v-1l1.3-0.3v-4c0-0.6-0.1-1.2-0.4-1.6c-0.3-0.4-0.8-0.5-1.3-0.5
		c-0.4,0-0.8,0.1-1.2,0.3c-0.4,0.3-0.6,0.5-0.9,0.8v4.9l1.3,0.3v1H242V105.9z"/>
	<path class="st0" d="M256.3,106.1c-0.8,0-1.4-0.1-2.1-0.5c-0.5-0.4-1-0.9-1.3-1.4c-0.3-0.6-0.5-1.3-0.5-2.2v-0.4
		c0-0.8,0.1-1.6,0.5-2.1c0.4-0.6,0.8-1.2,1.3-1.4c0.5-0.4,1.2-0.5,1.8-0.5c0.8,0,1.4,0.1,1.9,0.5c0.5,0.3,0.9,0.8,1.2,1.3
		c0.3,0.5,0.4,1.2,0.4,1.9v0.9h-5.4l0,0c0,0.5,0.1,1,0.3,1.4c0.1,0.4,0.4,0.8,0.8,1c0.4,0.3,0.8,0.4,1.2,0.4c0.5,0,0.9-0.1,1.3-0.3
		c0.4-0.1,0.8-0.4,1-0.6l0.6,1c-0.3,0.3-0.6,0.5-1.2,0.8C257.6,105.9,257,106.1,256.3,106.1z M254.1,100.9h3.9v-0.3
		c0-0.4-0.1-0.8-0.3-1c-0.1-0.3-0.4-0.5-0.6-0.8c-0.3-0.1-0.6-0.3-1-0.3s-0.6,0.1-0.9,0.3c-0.3,0.3-0.5,0.5-0.6,0.8
		C254.2,100,254.1,100.3,254.1,100.9L254.1,100.9z"/>
	<path class="st0" d="M265,105.9v-1l1.3-0.3v-8.8l-1.3-0.3v-0.9h5.1c0.8,0,1.6,0.1,2.1,0.4s1,0.6,1.3,1c0.3,0.5,0.4,1,0.4,1.7
		c0,0.6-0.1,1.2-0.4,1.7c-0.3,0.4-0.6,0.8-1.2,1c-0.5,0.3-1.2,0.4-1.8,0.4H268v3.9l1.3,0.3v1L265,105.9L265,105.9z M267.7,99.7h2.1
		c0.9,0,1.4-0.1,1.8-0.5c0.4-0.4,0.5-0.8,0.5-1.4c0-0.6-0.1-1-0.5-1.4s-0.9-0.5-1.7-0.5h-2.2L267.7,99.7L267.7,99.7z M272.4,105.9
		l-2.5-5.6h1.6l2.1,4.5l0.8,0.1v1h-1.9l0,0H272.4z"/>
	<path class="st0" d="M275.6,105.9v-1l1.3-0.3v-6l-1.3-0.3v-1h2.7v7.1l1.3,0.3v1h-4V105.9z M276.9,95.4v-1.7h1.6v1.7H276.9z"/>
	<path class="st0" d="M284.6,109.3c-0.4,0-0.8,0-1.3-0.1c-0.5-0.1-0.9-0.3-1.3-0.4l0.4-1.2c0.3,0.1,0.6,0.3,1,0.4s0.8,0.1,1.2,0.1
		c0.6,0,1.2-0.1,1.6-0.5c0.3-0.4,0.5-0.9,0.5-1.7v-0.8c-0.3,0.4-0.6,0.6-1,0.8c-0.4,0.1-0.8,0.3-1.3,0.3c-0.6,0-1.3-0.1-1.8-0.5
		c-0.5-0.4-0.9-0.8-1.2-1.4c-0.3-0.6-0.4-1.3-0.4-2.1V102c0-0.9,0.1-1.7,0.4-2.3c0.3-0.6,0.6-1.2,1.2-1.6c0.5-0.4,1-0.5,1.8-0.5
		c0.5,0,1,0.1,1.4,0.3c0.4,0.1,0.8,0.5,1,0.9l0.1-1h1.3v8.3c0,0.8-0.1,1.3-0.4,1.8s-0.6,0.9-1.2,1.2
		C286,109,285.4,109.3,284.6,109.3z M284.6,104.8c0.5,0,0.8-0.1,1.2-0.3c0.3-0.3,0.5-0.5,0.8-0.9v-3.9c-0.3-0.4-0.4-0.6-0.8-0.9
		c-0.3-0.3-0.6-0.3-1.2-0.3s-0.9,0.1-1.2,0.4c-0.3,0.3-0.5,0.6-0.8,1.2c-0.1,0.5-0.3,1-0.3,1.7v0.1c0,0.8,0.1,1.6,0.5,2.1
		C283.4,104.5,283.9,104.8,284.6,104.8z M287.8,98.8l-0.6-1.3h1.8v1L287.8,98.8z"/>
	<path class="st0" d="M289.9,105.9v-1l1.3-0.3v-9.7l-1.3-0.3v-1h2.7v4.8c0.3-0.4,0.6-0.6,1-0.9c0.4-0.3,0.9-0.4,1.4-0.4
		c0.9,0,1.6,0.3,2.1,0.8s0.8,1.3,0.8,2.5v4l1.3,0.3v1h-4v-1l1.3-0.3v-4c0-0.6-0.1-1.2-0.4-1.6c-0.3-0.4-0.8-0.5-1.3-0.5
		c-0.4,0-0.8,0.1-1.2,0.3c-0.4,0.3-0.6,0.5-0.9,0.8v4.9l1.3,0.3v1h-4.2v0.3H289.9z"/>
	<path class="st0" d="M303,106.1c-0.6,0-1.2-0.1-1.4-0.5c-0.4-0.4-0.5-0.9-0.5-1.7v-5.1h-1.3v-1.2h1.3v-2.1h1.6v2.1h1.8v1.2h-1.8
		v5.1c0,0.4,0.1,0.6,0.3,0.9c0.1,0.1,0.4,0.3,0.6,0.3c0.1,0,0.4,0,0.6,0s0.4,0,0.5-0.1l0.3,1c-0.3,0.1-0.5,0.1-0.8,0.1
		C303.5,105.9,303.3,106.1,303,106.1z"/>
	<path class="st0" d="M313.5,105.9l-2.6-10.1l-0.9-0.1v-1h3.6v1l-1.2,0.1l1.4,6.2l0.4,1.4l0,0l0.4-1.4l2.2-7.4h1.3l2.3,7.4l0.4,1.6
		l0,0l0.4-1.6l1.4-6.2l-1.3-0.1v-1h3.6v1l-0.9,0.1l-2.5,10.1h-1.4l-2.5-7.8l-0.3-1.2l0,0l-0.3,1.2l-2.5,7.8
		C314.5,105.9,313.5,105.9,313.5,105.9z"/>
	<path class="st0" d="M328.9,106.1c-0.9,0-1.6-0.3-1.9-0.6s-0.6-1-0.6-1.8c0-0.5,0.1-1,0.4-1.4c0.3-0.4,0.6-0.6,1.3-0.9
		c0.5-0.3,1.2-0.4,1.9-0.4h1.6v-0.8c0-0.5-0.1-0.9-0.5-1.2c-0.3-0.3-0.8-0.4-1.3-0.4c-0.4,0-0.6,0-0.9,0.1s-0.5,0.3-0.6,0.4
		l-0.1,1.2H327v-1.9c0.4-0.3,0.8-0.5,1.3-0.6s1-0.3,1.7-0.3c1,0,1.8,0.3,2.3,0.8s0.9,1.2,0.9,2.1v4c0,0.1,0,0.3,0,0.3
		c0,0.1,0,0.3,0,0.3l0.8,0.1v1h-2.2c0-0.3-0.1-0.4-0.1-0.6c0-0.1,0-0.4,0-0.5c-0.3,0.4-0.6,0.6-1,0.9
		C330,105.9,329.5,106.1,328.9,106.1z M329.2,104.8c0.5,0,0.9-0.1,1.4-0.4c0.5-0.3,0.8-0.5,0.9-0.9v-1.6H330c-0.6,0-1.2,0.1-1.6,0.5
		s-0.5,0.6-0.5,1.2c0,0.4,0.1,0.6,0.4,0.8C328.4,104.6,328.8,104.8,329.2,104.8z"/>
	<path class="st0" d="M336.9,109.3c-0.1,0-0.3,0-0.5,0c-0.1,0-0.4,0-0.4-0.1l0.1-1.2c0.1,0,0.3,0,0.4,0s0.3,0,0.3,0
		c0.4,0,0.6-0.1,0.8-0.4c0.3-0.3,0.4-0.6,0.5-1l0.4-0.9l-3-7.1l-0.9-0.1v-1h3.5v1l-1,0.1l1.7,4.2l0.4,1l0,0l1.9-5.3l-1-0.1v-1h3.5v1
		l-0.9,0.1l-3.2,8.6c-0.1,0.4-0.4,0.8-0.5,1c-0.3,0.3-0.5,0.5-0.8,0.8C337.8,109.2,337.4,109.3,336.9,109.3z"/>
</g>
<linearGradient id="SVGID_1_" gradientUnits="userSpaceOnUse" x1="68.3291" y1="-3.6677" x2="50.3688" y2="39.3085" gradientTransform="matrix(1 0 0 -1 0 122)">
	<stop  offset="0" style="stop-color:#F45400"/>
	<stop  offset="1" style="stop-color:#E27921"/>
</linearGradient>
<path class="st1" d="M72.3,117l-8.7-8.4c-1.9,1.4-4.2,1.1-5.7,0.3c0.9-0.2,1.9-1.5,2-1.5c-2.4,1.6-6.3,1.3-6.3,1.3
	c3.5-0.9,5.2-2.3,5.3-2.4l-4.9,1.6l3.4-2.2c-3.8,1.8-8.3,1.1-9.7-1c3.2,1.2,5.5-0.9,5.5-0.9c-5.4,1.8-6.8-3.5-10.9-2.8
	c2-1.9,4.6-1.3,4.6-1.3c-1.1-1.3-2.5-3.2-3.8-5.6l0,0c-0.9-2.6-0.8-7.2,1-11.5C47.8,76.5,57,74,62.4,74c-2.4,1.4-5.6,4.1-6.3,6.2
	c1.9-2.6,6.8-4.9,6.8-4.9s0.7,3.8,1.9,6.3c1.6,3.2,1.9,4.9,0.6,6.5c-1.2,1.6-3.1,3.4-4.3,7.3c1.7-4,5.1-6.4,7.5-6.7
	c-2.8,1.9-5.3,6-5.5,6.4c2.4-3.2,5.8-3.9,5.8-3.9c-3.5,2.5-5.8,7.8-5.9,8c2.4-4.5,6.4-5.5,6.4-5.5c-1.5,0.9-3,3.2-3.7,6.2
	c0.7-2.1,3.6-2.7,3.6-2.7c-2.6,2.9,0.7,6.8-2.8,9.1c-2.2-1.4-11.3-12.7-16.4-18.6C54.9,95.6,72.1,116.7,72.3,117z"/>
<linearGradient id="SVGID_2_" gradientUnits="userSpaceOnUse" x1="95.3186" y1="53.3889" x2="46.7529" y2="87.2511" gradientTransform="matrix(1 0 0 -1 0 122)">
	<stop  offset="0" style="stop-color:#E77C23"/>
	<stop  offset="0.5653" style="stop-color:#F87C09"/>
	<stop  offset="1" style="stop-color:#F75700"/>
</linearGradient>
<path class="st2" d="M70.3,41.1c8.3-5.9,19.1-6.4,19.1-6.4c-5.9,10.6-14.6,17.8-23.8,20.8c7.5-0.2,14.8-6.2,14.8-6.2
	C77.8,59.9,67.7,64,59.1,65.5c7.8,0.9,13-1.6,13-1.6c-1.9,4-7.1,6.9-11.8,8.2c-4.7,1.4-13,3-16.1,10.4c-1.9,4.3-1.9,8.9-1,11.5
	c-2.2-4-3.9-9.3-3-15.4c1.7-10.6,10.2-23.8,17.1-31c-11.3,8-18.1,23.2-18.1,23.2c2.6-15.6,9.6-36.7,25.3-44.6s30.4-3.3,41.6-11.8
	C101.9,31.5,79.5,31.6,70.3,41.1z"/>
<linearGradient id="SVGID_3_" gradientUnits="userSpaceOnUse" x1="12.4559" y1="86.1128" x2="45.8296" y2="64.3875" gradientTransform="matrix(1 0 0 -1 0 122)">
	<stop  offset="0" style="stop-color:#F45400"/>
	<stop  offset="1" style="stop-color:#E27921"/>
</linearGradient>
<path class="st3" d="M37.2,70.9c-0.1-15.2,8.2-29.1,8.2-29.1s-10-4.5-17.9-4.4c4-2.2,4.9-5.3,4.8-7.5c-1.5,2.8-5.9,4.1-13.7,4.5
	c-4.4,0.2-7.2,3.3-6.7,6.3c0,0-4.6,1.2-7.1,7.4c6.4-2.8,13.7-1.4,22.1,8.8c0,0-3-6.7-6.8-8.9C27.8,51.6,34.4,59.6,37.2,70.9z"/>
<linearGradient id="SVGID_4_" gradientUnits="userSpaceOnUse" x1="41.0417" y1="80.0085" x2="95.3071" y2="124.7293" gradientTransform="matrix(1 0 0 -1 0 122)">
	<stop  offset="0" style="stop-color:#F45400"/>
	<stop  offset="1" style="stop-color:#E27921"/>
</linearGradient>
<path class="st4" d="M48.1,37.5c6.6-10.1,15.5-14.6,26-18.2S84.2,6.5,81.1,3C79.4,16.2,51.1,18.8,48.1,37.5z"/>
</svg>
